# Wavefront Obj file
# 
# verts: 104 uv-s: 246
mtllib CHAST GAZETA.mtl

g Line001
#pivot 0.000000 0.000000 0.000000

v -48.667099 0.000000 -19.492203
v -57.368694 0.000000 23.468201
v -57.368694 1.000000 23.468201
v -48.667099 1.000000 -19.492203
v -23.340500 0.000000 -18.610901
v -23.340500 1.000000 -18.610901
v -2.986700 0.000000 8.143196
v -2.986700 1.000000 8.143196
v 0.056500 0.000000 2.400101
v 0.056500 1.000000 2.400101
v 2.393200 0.000000 -11.562000
v 2.393200 1.000000 -11.562000
v 11.832900 0.000000 -16.957703
v 11.832900 1.000000 -16.957703
v 31.029499 0.000000 3.133598
v 31.029499 1.000000 3.133598
v 63.818298 0.000000 -1.843800
v 63.818298 1.000000 -1.843800
v 65.958900 0.000000 -42.058102
v 65.958900 1.000000 -42.058102
v 75.498795 0.000000 -62.387100
v 75.498795 1.000000 -62.387100
v 73.457001 0.000000 -74.690002
v 73.457001 1.000000 -74.690002
v 78.218796 0.000000 -80.478104
v 78.218796 1.000000 -80.478104
v 73.136703 0.000000 -96.305298
v 73.136703 1.000000 -96.305298
v 76.922394 0.000000 -120.602402
v 76.922394 1.000000 -120.602402
v 73.566299 0.000000 -117.425400
v 73.566299 1.000000 -117.425400
v 73.257004 0.000000 -119.608803
v 73.257004 1.000000 -119.608803
v 73.016602 0.000000 -121.703903
v 73.016602 1.000000 -121.703903
v 72.914101 0.000000 -123.622597
v 72.914101 1.000000 -123.622597
v 73.018303 0.000000 -125.276398
v 73.018303 1.000000 -125.276398
v 73.398300 0.000000 -126.577202
v 73.398300 1.000000 -126.577202
v 74.122803 0.000000 -127.436798
v 74.122803 1.000000 -127.436798
v 75.260803 0.000000 -127.766800
v 75.260803 1.000000 -127.766800
v 76.240494 0.000000 -127.852501
v 76.240494 1.000000 -127.852501
v 76.521698 0.000000 -128.028000
v 76.521698 1.000000 -128.028000
v 76.220703 0.000000 -128.278305
v 76.220703 1.000000 -128.278305
v 75.454102 0.000000 -128.588394
v 75.454102 1.000000 -128.588394
v 74.338303 0.000000 -128.943497
v 74.338303 1.000000 -128.943497
v 72.989601 0.000000 -129.328400
v 72.989601 1.000000 -129.328400
v 71.524498 0.000000 -129.728302
v 71.524498 1.000000 -129.728302
v 75.741302 0.000000 -137.561493
v 75.741302 1.000000 -137.561493
v 70.915199 0.000000 -143.613297
v 70.915199 1.000000 -143.613297
v 63.267399 0.000000 -154.224899
v 63.267399 1.000000 -154.224899
v 42.344799 0.000000 -108.885101
v 42.344799 1.000000 -108.885101
v 35.848099 0.000000 -94.299202
v 35.848099 1.000000 -94.299202
v 28.796101 0.000000 -91.540298
v 28.796101 1.000000 -91.540298
v 19.019600 0.000000 -99.007004
v 19.019600 1.000000 -99.007004
v 16.278700 0.000000 -100.479797
v 16.278700 1.000000 -100.479797
v 16.917900 0.000000 -94.833199
v 16.917900 1.000000 -94.833199
v 16.248800 0.000000 -92.241402
v 16.248800 1.000000 -92.241402
v 19.453699 0.000000 -91.810501
v 19.453699 1.000000 -91.810501
v 13.545300 0.000000 -82.903297
v 13.545300 1.000000 -82.903297
v 11.255000 0.000000 -85.932404
v 11.255000 1.000000 -85.932404
v 8.104000 0.000000 -84.305397
v 8.104000 1.000000 -84.305397
v 6.957400 0.000000 -81.186203
v 6.957400 1.000000 -81.186203
v -2.956800 0.000000 -84.530602
v -2.956800 1.000000 -84.530602
v -25.828400 0.000000 -85.476196
v -25.828400 1.000000 -85.476196
v -31.783199 0.000000 -59.577801
v -31.783199 1.000000 -59.577801
v -43.805000 0.000000 -40.213501
v -43.805000 1.000000 -40.213501
v -48.610199 0.000000 -26.701599
v -48.610199 1.000000 -26.701599
v -46.824402 0.000000 -24.174103
v -46.824402 1.000000 -24.174103
v -51.068100 0.000000 -17.369900
v -51.068100 1.000000 -17.369900
# 104 positions

vt 0.033116 0.008492
vt 0.033116 0.042488
vt 0.524535 0.893904
vt 0.186173 0.008492
vt 0.222081 0.134869
vt 0.374525 0.924289
vt 0.186173 0.005000
vt 0.222081 0.138361
vt 0.625475 0.005000
vt 0.033116 0.005000
vt 0.033116 0.045980
vt 0.475465 0.035385
vt 0.033116 0.134869
vt 0.185309 0.051860
vt 0.521458 0.805468
vt 0.033116 0.138361
vt 0.185309 0.055352
vt 0.478542 0.123821
vt 0.067926 0.051860
vt 0.058554 0.130136
vt 0.428037 0.734396
vt 0.067926 0.055352
vt 0.062046 0.130136
vt 0.571963 0.194893
vt 0.058554 0.110082
vt 0.448091 0.723769
vt 0.062046 0.110082
vt 0.551909 0.205519
vt 0.058554 0.061329
vt 0.496844 0.715610
vt 0.062046 0.061329
vt 0.503156 0.213679
vt 0.058554 0.042488
vt 0.033116 0.014372
vt 0.515685 0.682648
vt 0.062046 0.042488
vt 0.033116 0.017864
vt 0.484314 0.246641
vt 0.100147 0.014372
vt 0.445530 0.615617
vt 0.100147 0.017864
vt 0.554470 0.313672
vt 0.214641 0.014372
vt 0.576692 0.466546
vt 0.462910 0.501124
vt 0.214641 0.017864
vt 0.580184 0.466546
vt 0.537090 0.428165
vt 0.576692 0.326124
vt 0.603332 0.493649
vt 0.580184 0.326124
vt 0.396668 0.435640
vt 0.576692 0.255138
vt 0.674317 0.460337
vt 0.580184 0.255138
vt 0.325682 0.468952
vt 0.576692 0.212179
vt 0.717277 0.467467
vt 0.580184 0.212179
vt 0.282723 0.461822
vt 0.576692 0.191967
vt 0.737488 0.450839
vt 0.580184 0.191967
vt 0.262512 0.478449
vt 0.576692 0.136702
vt 0.792754 0.468585
vt 0.580184 0.136702
vt 0.207246 0.460704
vt 0.576692 0.051860
vt 0.067926 0.064724
vt 0.877595 0.455366
vt 0.580184 0.051860
vt 0.067926 0.061232
vt 0.122404 0.473923
vt 0.084063 0.064724
vt 0.067926 0.105562
vt 0.866502 0.467085
vt 0.084063 0.061232
vt 0.071418 0.105562
vt 0.133498 0.462204
vt 0.067926 0.097938
vt 0.874126 0.468165
vt 0.071418 0.097938
vt 0.125874 0.461124
vt 0.067926 0.090622
vt 0.881441 0.469005
vt 0.071418 0.090622
vt 0.118558 0.460284
vt 0.067926 0.083923
vt 0.888142 0.469362
vt 0.071418 0.083923
vt 0.111859 0.459926
vt 0.067926 0.078148
vt 0.893916 0.468999
vt 0.071418 0.078148
vt 0.106083 0.460290
vt 0.067926 0.073606
vt 0.898458 0.467672
vt 0.071418 0.073606
vt 0.101542 0.461617
vt 0.067926 0.070604
vt 0.033116 0.061232
vt 0.901460 0.465142
vt 0.071418 0.070604
vt 0.033116 0.064724
vt 0.098540 0.464147
vt 0.037090 0.061232
vt 0.902612 0.461168
vt 0.037090 0.064724
vt 0.097387 0.468121
vt 0.040511 0.061232
vt 0.902912 0.457747
vt 0.040511 0.064724
vt 0.097088 0.471542
vt 0.041493 0.061232
vt 0.033116 0.079451
vt 0.903525 0.456765
vt 0.041493 0.064724
vt 0.033116 0.075959
vt 0.096475 0.472523
vt 0.034167 0.079451
vt 0.904398 0.457816
vt 0.034167 0.075959
vt 0.095602 0.471472
vt 0.036844 0.079451
vt 0.905481 0.460493
vt 0.036844 0.075959
vt 0.094518 0.468796
vt 0.040740 0.079451
vt 0.906721 0.464389
vt 0.040740 0.075959
vt 0.093279 0.464899
vt 0.045449 0.079451
vt 0.908065 0.469099
vt 0.045449 0.075959
vt 0.091934 0.460190
vt 0.050565 0.079451
vt 0.005000 0.097232
vt 0.909462 0.474215
vt 0.050565 0.075959
vt 0.008492 0.097232
vt 0.090538 0.455074
vt 0.005000 0.069880
vt 0.936814 0.459490
vt 0.008492 0.069880
vt 0.063186 0.469798
vt 0.005000 0.048748
vt 0.957946 0.476342
vt 0.008492 0.048748
vt 0.042054 0.452946
vt 0.005000 0.011694
vt 0.017864 0.214251
vt 0.995000 0.503047
vt 0.008492 0.011694
vt 0.014372 0.214251
vt 0.005000 0.426242
vt 0.017864 0.055932
vt 0.836681 0.576105
vt 0.014372 0.055932
vt 0.163319 0.353183
vt 0.017864 0.005000
vt 0.033116 0.036608
vt 0.785749 0.598791
vt 0.014372 0.005000
vt 0.033116 0.033116
vt 0.214251 0.330498
vt 0.057740 0.036608
vt 0.776115 0.623415
vt 0.057740 0.033116
vt 0.223884 0.305873
vt 0.091879 0.036608
vt 0.802188 0.657553
vt 0.091879 0.033116
vt 0.197812 0.271735
vt 0.101449 0.036608
vt 0.052674 0.071255
vt 0.807331 0.667124
vt 0.101449 0.033116
vt 0.049182 0.071255
vt 0.192669 0.262165
vt 0.052674 0.051538
vt 0.787614 0.664892
vt 0.049182 0.051538
vt 0.212386 0.264397
vt 0.052674 0.042488
vt 0.044408 0.051860
vt 0.778564 0.667228
vt 0.049182 0.042488
vt 0.044408 0.055352
vt 0.221436 0.262060
vt 0.033116 0.051860
vt 0.067926 0.045980
vt 0.777059 0.656038
vt 0.033116 0.055352
vt 0.067926 0.042488
vt 0.222941 0.273251
vt 0.105249 0.045980
vt 0.033116 0.027236
vt 0.745957 0.676669
vt 0.105249 0.042488
vt 0.033116 0.023744
vt 0.254043 0.252620
vt 0.041113 0.027236
vt 0.756534 0.684666
vt 0.041113 0.023744
vt 0.243466 0.244623
vt 0.052116 0.027236
vt 0.750852 0.695669
vt 0.052116 0.023744
vt 0.249148 0.233620
vt 0.056120 0.027236
vt 0.739960 0.699673
vt 0.056120 0.023744
vt 0.260039 0.229616
vt 0.090739 0.027236
vt 0.751639 0.734291
vt 0.090739 0.023744
vt 0.248361 0.194997
vt 0.170602 0.027236
vt 0.027236 0.242816
vt 0.754941 0.814155
vt 0.170602 0.023744
vt 0.023744 0.242816
vt 0.245059 0.115134
vt 0.027236 0.152383
vt 0.664507 0.834948
vt 0.023744 0.152383
vt 0.335493 0.094340
vt 0.027236 0.084766
vt 0.596891 0.876927
vt 0.023744 0.084766
vt 0.403109 0.052362
vt 0.027236 0.037585
vt 0.549709 0.893705
vt 0.023744 0.037585
vt 0.450291 0.035583
vt 0.027236 0.028759
vt 0.540884 0.887470
vt 0.023744 0.028759
vt 0.459116 0.041819
vt 0.027236 0.005000
vt 0.044306 0.042488
vt 0.517124 0.902288
vt 0.023744 0.005000
vt 0.044306 0.045980
vt 0.482875 0.027001
# 246 texture coordinates

vn -0.980097 0.000000 -0.198518
vn 0.662283 0.000000 0.749254
vn 0.000000 -1.000000 0.000000
vn 0.000000 -1.000000 0.000000
vn -0.980097 0.000000 -0.198518
vn 0.777569 0.000000 0.628798
vn 0.000000 -1.000000 0.000000
vn -0.980097 0.000000 -0.198518
vn 0.777569 0.000000 0.628798
vn 0.000000 1.000000 0.000000
vn -0.980097 0.000000 -0.198518
vn 0.662283 0.000000 0.749254
vn 0.000000 1.000000 0.000000
vn 0.000000 1.000000 0.000000
vn 0.777569 0.000000 0.628798
vn -0.795866 0.000000 0.605473
vn 0.000000 -1.000000 0.000000
vn 0.777569 0.000000 0.628798
vn -0.795866 0.000000 0.605473
vn 0.000000 1.000000 0.000000
vn -0.795866 0.000000 0.605473
vn 0.883614 0.000000 0.468217
vn 0.000000 -1.000000 0.000000
vn -0.795866 0.000000 0.605473
vn 0.883614 0.000000 0.468217
vn 0.000000 1.000000 0.000000
vn 0.947155 0.000000 0.320775
vn 0.000000 -1.000000 0.000000
vn 0.947155 0.000000 0.320775
vn 0.000000 1.000000 0.000000
vn 0.986283 0.000000 0.165064
vn 0.496249 0.000000 0.868180
vn 0.000000 -1.000000 0.000000
vn 0.986283 0.000000 0.165064
vn 0.496249 0.000000 0.868180
vn 0.000000 1.000000 0.000000
vn 0.496249 0.000000 0.868180
vn -0.723022 0.000000 0.690825
vn 0.000000 -1.000000 0.000000
vn 0.496249 0.000000 0.868180
vn -0.723022 0.000000 0.690825
vn 0.000000 1.000000 0.000000
vn -0.723022 0.000000 0.690825
vn 0.150082 0.000000 0.988674
vn 0.000000 -1.000000 0.000000
vn -0.723022 0.000000 0.690825
vn 0.150082 0.000000 0.988674
vn 0.000000 1.000000 0.000000
vn 0.150082 0.000000 0.988674
vn 0.998586 0.000000 0.053155
vn 0.000000 -1.000000 0.000000
vn 0.150082 0.000000 0.988674
vn 0.998586 0.000000 0.053155
vn 0.000000 1.000000 0.000000
vn 0.969901 0.000000 0.243501
vn 0.000000 -1.000000 0.000000
vn 0.969901 0.000000 0.243501
vn 0.000000 1.000000 0.000000
vn 0.905276 0.000000 0.424824
vn 0.986507 0.000000 -0.163721
vn 0.000000 -1.000000 0.000000
vn 0.905276 0.000000 0.424824
vn 0.986507 0.000000 -0.163721
vn 0.000000 1.000000 0.000000
vn 0.986507 0.000000 -0.163721
vn 0.772249 0.000000 0.635320
vn 0.000000 -1.000000 0.000000
vn 0.986507 0.000000 -0.163721
vn 0.772249 0.000000 0.635320
vn 0.000000 1.000000 0.000000
vn 0.772249 0.000000 0.635320
vn 0.952120 0.000000 -0.305725
vn 0.000000 -1.000000 0.000000
vn 0.772249 0.000000 0.635320
vn 0.952120 0.000000 -0.305725
vn 0.000000 1.000000 0.000000
vn 0.996954 0.000000 -0.077988
vn 0.000000 -1.000000 0.000000
vn 0.996954 0.000000 -0.077988
vn 0.000000 1.000000 0.000000
vn 0.988079 0.000000 0.153951
vn -0.687464 0.000000 -0.726218
vn 0.000000 -1.000000 0.000000
vn 0.988079 0.000000 0.153951
vn -0.687464 0.000000 -0.726218
vn 0.000000 1.000000 0.000000
vn -0.687464 0.000000 -0.726218
vn 0.990115 0.000000 -0.140257
vn 0.000000 -1.000000 0.000000
vn 0.000000 -1.000000 0.000000
vn -0.687464 0.000000 -0.726218
vn 0.990115 0.000000 -0.140257
vn 0.000000 1.000000 0.000000
vn 0.000000 1.000000 0.000000
vn 0.991885 0.000000 -0.127138
vn 0.000000 -1.000000 0.000000
vn 0.991885 0.000000 -0.127138
vn 0.000000 1.000000 0.000000
vn 0.996490 0.000000 -0.083710
vn 0.000000 -1.000000 0.000000
vn 0.996490 0.000000 -0.083710
vn 0.000000 1.000000 0.000000
vn 0.999989 0.000000 0.004777
vn 0.000000 -1.000000 0.000000
vn 0.999989 0.000000 0.004777
vn 0.000000 1.000000 0.000000
vn 0.984974 0.000000 0.172700
vn 0.000000 -1.000000 0.000000
vn 0.984974 0.000000 0.172700
vn 0.000000 1.000000 0.000000
vn 0.881262 0.000000 0.472627
vn 0.000000 -1.000000 0.000000
vn 0.881262 0.000000 0.472627
vn 0.000000 1.000000 0.000000
vn 0.764634 0.000000 0.644465
vn 0.278509 0.000000 0.960434
vn 0.000000 -1.000000 0.000000
vn 0.764634 0.000000 0.644465
vn 0.278509 0.000000 0.960434
vn 0.000000 1.000000 0.000000
vn 0.183699 0.000000 0.982982
vn 0.000000 -1.000000 0.000000
vn 0.183699 0.000000 0.982982
vn 0.000000 1.000000 0.000000
vn 0.317036 0.000000 0.948413
vn 0.000000 -1.000000 0.000000
vn 0.317036 0.000000 0.948413
vn 0.000000 1.000000 0.000000
vn 0.529449 0.000000 0.848342
vn 0.639394 0.000000 -0.768879
vn 0.000000 -1.000000 0.000000
vn 0.529449 0.000000 0.848342
vn 0.639394 0.000000 -0.768879
vn 0.000000 1.000000 0.000000
vn 0.513316 0.000000 -0.858200
vn 0.000000 -1.000000 0.000000
vn 0.513316 0.000000 -0.858200
vn 0.000000 1.000000 0.000000
vn 0.339369 0.000000 -0.940653
vn 0.000000 -1.000000 0.000000
vn 0.339369 0.000000 -0.940653
vn 0.000000 1.000000 0.000000
vn 0.288879 0.000000 -0.957366
vn 0.000000 -1.000000 0.000000
vn 0.288879 0.000000 -0.957366
vn 0.000000 1.000000 0.000000
vn 0.268879 0.000000 -0.963174
vn 0.000000 -1.000000 0.000000
vn 0.268879 0.000000 -0.963174
vn 0.000000 1.000000 0.000000
vn 0.263319 0.000000 -0.964709
vn 0.880521 0.000000 0.474007
vn 0.000000 -1.000000 0.000000
vn 0.000000 -1.000000 0.000000
vn 0.263319 0.000000 -0.964709
vn 0.880521 0.000000 0.474007
vn 0.000000 1.000000 0.000000
vn 0.000000 1.000000 0.000000
vn 0.880521 0.000000 0.474007
vn 0.781834 0.000000 -0.623486
vn 0.000000 -1.000000 0.000000
vn 0.880521 0.000000 0.474007
vn 0.781834 0.000000 -0.623486
vn 0.000000 1.000000 0.000000
vn 0.796786 0.000000 -0.604262
vn 0.000000 -1.000000 0.000000
vn 0.796786 0.000000 -0.604262
vn 0.000000 1.000000 0.000000
vn 0.811264 0.000000 -0.584680
vn -0.907986 0.000000 -0.419001
vn 0.000000 -1.000000 0.000000
vn 0.811264 0.000000 -0.584680
vn -0.907986 0.000000 -0.419001
vn 0.000000 1.000000 0.000000
vn -0.910755 0.000000 -0.412947
vn 0.000000 -1.000000 0.000000
vn -0.910755 0.000000 -0.412947
vn 0.000000 1.000000 0.000000
vn -0.913484 0.000000 -0.406875
vn -0.364334 0.000000 -0.931269
vn 0.000000 -1.000000 0.000000
vn -0.913484 0.000000 -0.406875
vn -0.364334 0.000000 -0.931269
vn 0.000000 1.000000 0.000000
vn -0.364334 0.000000 -0.931269
vn 0.606966 0.000000 -0.794728
vn 0.000000 -1.000000 0.000000
vn -0.364334 0.000000 -0.931269
vn 0.606966 0.000000 -0.794728
vn 0.000000 1.000000 0.000000
vn 0.541865 0.000000 -0.840466
vn 0.000000 -1.000000 0.000000
vn 0.541865 0.000000 -0.840466
vn 0.000000 1.000000 0.000000
vn 0.473333 0.000000 -0.880883
vn -0.993654 0.000000 0.112483
vn 0.000000 -1.000000 0.000000
vn 0.473333 0.000000 -0.880883
vn -0.993654 0.000000 0.112483
vn 0.000000 1.000000 0.000000
vn -0.997554 0.000000 -0.069905
vn 0.000000 -1.000000 0.000000
vn -0.997554 0.000000 -0.069905
vn 0.000000 1.000000 0.000000
vn -0.968255 0.000000 -0.249965
vn -0.133252 0.000000 0.991082
vn 0.000000 -1.000000 0.000000
vn -0.968255 0.000000 -0.249965
vn -0.133252 0.000000 0.991082
vn 0.000000 1.000000 0.000000
vn -0.133252 0.000000 0.991082
vn -0.833332 0.000000 -0.552773
vn 0.000000 -1.000000 0.000000
vn -0.133252 0.000000 0.991082
vn -0.833332 0.000000 -0.552773
vn 0.000000 1.000000 0.000000
vn -0.833332 0.000000 -0.552773
vn 0.797659 0.000000 -0.603108
vn 0.000000 -1.000000 0.000000
vn -0.833332 0.000000 -0.552773
vn 0.797659 0.000000 -0.603108
vn 0.000000 1.000000 0.000000
vn 0.797659 0.000000 -0.603108
vn -0.458795 0.000000 -0.888542
vn 0.000000 -1.000000 0.000000
vn 0.797659 0.000000 -0.603108
vn -0.458795 0.000000 -0.888542
vn 0.000000 1.000000 0.000000
vn -0.458795 0.000000 -0.888542
vn -0.938594 0.000000 -0.345023
vn 0.000000 -1.000000 0.000000
vn -0.458795 0.000000 -0.888542
vn -0.938594 0.000000 -0.345023
vn 0.000000 1.000000 0.000000
vn -0.938594 0.000000 -0.345023
vn 0.319638 0.000000 -0.947540
vn 0.000000 -1.000000 0.000000
vn -0.938594 0.000000 -0.345023
vn 0.319638 0.000000 -0.947540
vn 0.000000 1.000000 0.000000
vn 0.182308 0.000000 -0.983241
vn 0.000000 -1.000000 0.000000
vn 0.182308 0.000000 -0.983241
vn 0.000000 1.000000 0.000000
vn 0.041308 0.000000 -0.999147
vn -0.974570 0.000000 -0.224082
vn 0.000000 -1.000000 0.000000
vn 0.041308 0.000000 -0.999147
vn -0.974570 0.000000 -0.224082
vn 0.000000 1.000000 0.000000
vn -0.924606 0.000000 -0.380924
vn 0.000000 -1.000000 0.000000
vn -0.924606 0.000000 -0.380924
vn 0.000000 1.000000 0.000000
vn -0.901040 0.000000 -0.433736
vn 0.000000 -1.000000 0.000000
vn -0.901040 0.000000 -0.433736
vn 0.000000 1.000000 0.000000
vn -0.942193 0.000000 -0.335070
vn -0.816712 0.000000 0.577046
vn 0.000000 -1.000000 0.000000
vn -0.942193 0.000000 -0.335070
vn -0.816712 0.000000 0.577046
vn 0.000000 1.000000 0.000000
vn -0.816712 0.000000 0.577046
vn -0.848498 0.000000 -0.529198
vn 0.000000 -1.000000 0.000000
vn -0.816712 0.000000 0.577046
vn -0.848498 0.000000 -0.529198
vn 0.000000 1.000000 0.000000
vn -0.848498 0.000000 -0.529198
vn 0.662283 0.000000 0.749254
vn 0.000000 -1.000000 0.000000
vn -0.848498 0.000000 -0.529198
vn 0.662283 0.000000 0.749254
vn 0.000000 1.000000 0.000000
# 276 normals

usemtl wire_255255255
s 1
f 1/1/1 2/4/5 3/7/8 4/10/11
s 2
f 2/5/6 5/13/15 6/16/18 3/8/9
s 3
f 5/14/16 7/19/21 8/22/24 6/17/19
s 4
f 7/20/22 9/25/27 10/27/29 8/23/25
f 9/25/27 11/29/31 12/31/34 10/27/29
s 5
f 11/29/32 13/33/37 14/36/40 12/31/35
s 6
f 13/34/38 15/39/43 16/41/46 14/37/41
s 7
f 15/39/44 17/43/49 18/46/52 16/41/47
s 8
f 17/44/50 19/49/55 20/51/57 18/47/53
f 19/49/55 21/53/59 22/55/62 20/51/57
s 9
f 21/53/60 23/57/65 24/59/68 22/55/63
s 10
f 23/57/66 25/61/71 26/63/74 24/59/69
s 11
f 25/61/72 27/65/77 28/67/79 26/63/75
f 27/65/77 29/69/81 30/72/84 28/67/79
s 12
f 29/70/82 31/75/87 32/78/91 30/73/85
s 13
f 31/76/88 33/81/95 34/83/97 32/79/92
f 33/81/95 35/85/99 36/87/101 34/83/97
f 35/85/99 37/89/103 38/91/105 36/87/101
f 37/89/103 39/93/107 40/95/109 38/91/105
f 39/93/107 41/97/111 42/99/113 40/95/109
f 41/97/111 43/101/115 44/104/118 42/99/113
s 14
f 43/102/116 45/107/121 46/109/123 44/105/119
f 45/107/121 47/111/125 48/113/127 46/109/123
f 47/111/125 49/115/129 50/118/132 48/113/127
s 15
f 49/116/130 51/121/135 52/123/137 50/119/133
f 51/121/135 53/125/139 54/127/141 52/123/137
f 53/125/139 55/129/143 56/131/145 54/127/141
f 55/129/143 57/133/147 58/135/149 56/131/145
f 57/133/147 59/137/151 60/140/155 58/135/149
s 16
f 59/138/152 61/143/159 62/145/162 60/141/156
s 17
f 61/143/160 63/147/165 64/149/167 62/145/163
f 63/147/165 65/151/169 66/154/172 64/149/167
s 18
f 65/152/170 67/157/175 68/159/177 66/155/173
f 67/157/175 69/161/179 70/164/182 68/159/177
s 19
f 69/162/180 71/167/185 72/169/188 70/165/183
s 20
f 71/167/186 73/171/191 74/173/193 72/169/189
f 73/171/191 75/175/195 76/178/198 74/173/193
s 21
f 75/176/196 77/181/201 78/183/203 76/179/199
f 77/181/201 79/185/205 80/188/208 78/183/203
s 22
f 79/186/206 81/191/211 82/194/214 80/189/209
s 23
f 81/192/212 83/197/217 84/200/220 82/195/215
s 24
f 83/198/218 85/203/223 86/205/226 84/201/221
s 25
f 85/203/224 87/207/229 88/209/232 86/205/227
s 26
f 87/207/230 89/211/235 90/213/238 88/209/233
s 27
f 89/211/236 91/215/241 92/217/243 90/213/239
f 91/215/241 93/219/245 94/222/248 92/217/243
s 28
f 93/220/246 95/225/251 96/227/253 94/223/249
f 95/225/251 97/229/255 98/231/257 96/227/253
f 97/229/255 99/233/259 100/235/262 98/231/257
s 29
f 99/233/260 101/237/265 102/239/268 100/235/263
s 30
f 101/237/266 103/241/271 104/244/274 102/239/269
s 31
f 103/242/272 1/2/2 4/11/12 104/245/275
s 32
f 101/238/267 5/15/17 1/3/3 103/243/273
f 27/66/78 67/158/176 31/77/89 29/71/83
f 73/172/192 71/168/187 77/182/202 75/177/197
f 5/15/17 11/30/33 9/26/28 7/21/23
f 77/182/202 71/168/187 81/193/213 79/187/207
f 83/199/219 89/212/237 87/208/231 85/204/225
f 91/216/242 89/212/237 95/226/252 93/221/247
f 15/40/45 13/35/39 19/50/56 17/45/51
f 27/66/78 25/62/73 69/163/181 67/158/176
f 23/58/67 71/168/187 69/163/181 25/62/73
f 71/168/187 19/50/56 83/199/219 81/193/213
f 97/230/256 5/15/17 101/238/267 99/234/261
f 95/226/252 89/212/237 5/15/17 97/230/256
f 89/212/237 13/35/39 11/30/33 5/15/17
f 89/212/237 83/199/219 19/50/56 13/35/39
f 71/168/187 23/58/67 21/54/61 19/50/56
s 33
f 1/3/4 5/15/17 2/6/7
s 34
f 63/148/166 61/144/161 67/158/176 65/153/171
f 59/139/153 41/98/112 67/158/176 61/144/161
f 39/94/108 37/90/104 67/158/176 41/98/112
f 35/86/100 33/82/96 67/158/176 37/90/104
f 31/77/90 67/158/176 33/82/96
s 35
f 47/112/126 45/108/122 51/122/136 49/117/131
f 45/108/122 55/130/144 53/126/140 51/122/136
f 43/103/117 57/134/148 55/130/144 45/108/122
f 41/98/112 59/139/154 57/134/148 43/103/117
s 36
f 102/240/270 104/246/276 4/12/13 6/18/20
f 28/68/80 30/74/86 32/80/93 68/160/178
f 74/174/194 76/180/200 78/184/204 72/170/190
f 6/18/20 8/24/26 10/28/30 12/32/36
f 78/184/204 80/190/210 82/196/216 72/170/190
f 84/202/222 86/206/228 88/210/234 90/214/240
f 92/218/244 94/224/250 96/228/254 90/214/240
f 16/42/48 18/48/54 20/52/58 14/38/42
f 28/68/80 68/160/178 70/166/184 26/64/76
f 24/60/70 26/64/76 70/166/184 72/170/190
f 72/170/190 82/196/216 84/202/222 20/52/58
f 98/232/258 100/236/264 102/240/270 6/18/20
f 96/228/254 98/232/258 6/18/20 90/214/240
f 90/214/240 6/18/20 12/32/36 14/38/42
f 90/214/240 14/38/42 20/52/58 84/202/222
f 72/170/190 20/52/58 22/56/64 24/60/70
s 37
f 4/12/14 3/9/10 6/18/20
s 38
f 64/150/168 66/156/174 68/160/178 62/146/164
f 60/142/157 62/146/164 68/160/178 42/100/114
f 40/96/110 42/100/114 68/160/178 38/92/106
f 36/88/102 38/92/106 68/160/178 34/84/98
f 32/80/94 34/84/98 68/160/178
s 39
f 48/114/128 50/120/134 52/124/138 46/110/124
f 46/110/124 52/124/138 54/128/142 56/132/146
f 44/106/120 46/110/124 56/132/146 58/136/150
f 42/100/114 44/106/120 58/136/150 60/142/158

# 104 faces
