# Wavefront Obj file
# 
# verts: 8 uv-s: 24
mtllib фото дочери.mtl

g Box001
#pivot 0.000000 0.000000 0.000000

v -66.498398 0.000000 63.254898
v -66.498398 0.000000 -86.745102
v 133.501602 0.000000 -86.745102
v 133.501602 0.000000 63.254898
v -66.498398 1.000000 63.254898
v 133.501602 1.000000 63.254898
v 133.501602 1.000000 -86.745102
v -66.498398 1.000000 -86.745102
# 8 positions

vt 0.005000 0.496783
vt 0.007459 0.995000
vt 0.035396 0.503217
vt 0.373837 0.496783
vt 0.016771 0.503217
vt 0.035396 0.872054
vt 0.373837 0.005000
vt 0.023625 0.503217
vt 0.016771 0.995000
vt 0.005000 0.005000
vt 0.007459 0.503217
vt 0.023625 0.872054
vt 0.749440 0.005000
vt 0.005000 0.995000
vt 0.032937 0.503217
vt 0.749440 0.496783
vt 0.005000 0.503217
vt 0.026084 0.872054
vt 0.380603 0.496783
vt 0.026084 0.503217
vt 0.014312 0.995000
vt 0.380603 0.005000
vt 0.014312 0.503217
vt 0.032937 0.872054
# 24 texture coordinates

vn 0.000000 -1.000000 0.000000
vn 0.000000 0.000000 1.000000
vn -1.000000 0.000000 0.000000
vn 0.000000 -1.000000 0.000000
vn 0.000000 0.000000 -1.000000
vn -1.000000 0.000000 0.000000
vn 0.000000 -1.000000 0.000000
vn 1.000000 0.000000 0.000000
vn 0.000000 0.000000 -1.000000
vn 0.000000 -1.000000 0.000000
vn 0.000000 0.000000 1.000000
vn 1.000000 0.000000 0.000000
vn 0.000000 1.000000 0.000000
vn 0.000000 0.000000 1.000000
vn -1.000000 0.000000 0.000000
vn 0.000000 1.000000 0.000000
vn 0.000000 0.000000 1.000000
vn 1.000000 0.000000 0.000000
vn 0.000000 1.000000 0.000000
vn 1.000000 0.000000 0.000000
vn 0.000000 0.000000 -1.000000
vn 0.000000 1.000000 0.000000
vn 0.000000 0.000000 -1.000000
vn -1.000000 0.000000 0.000000
# 24 normals

usemtl wire_229166215
s 1
f 1/1/1 2/4/4 3/7/7 4/10/10
s 2
f 5/13/13 6/16/16 7/19/19 8/22/22
s 3
f 1/2/2 4/11/11 6/17/17 5/14/14
s 4
f 4/12/12 3/8/8 7/20/20 6/18/18
s 5
f 3/9/9 2/5/5 8/23/23 7/21/21
s 6
f 2/6/6 1/3/3 5/15/15 8/24/24

# 6 faces
